<svg width="180" height="180" viewBox="0 0 180 180" xmlns="http://www.w3.org/2000/svg">
  <defs>
    <linearGradient id="bgGrad" x1="0%" y1="0%" x2="100%" y2="100%">
      <stop offset="0%" style="stop-color:#0f172a;stop-opacity:1" />
      <stop offset="100%" style="stop-color:#1e293b;stop-opacity:1" />
    </linearGradient>
    <linearGradient id="spGrad" x1="0%" y1="0%" x2="100%" y2="100%">
      <stop offset="0%" style="stop-color:#22d3ee;stop-opacity:1" />
      <stop offset="50%" style="stop-color:#7c3aed;stop-opacity:1" />
      <stop offset="100%" style="stop-color:#f472b6;stop-opacity:1" />
    </linearGradient>
    <linearGradient id="accentGrad" x1="0%" y1="0%" x2="100%" y2="100%">
      <stop offset="0%" style="stop-color:#06b6d4;stop-opacity:1" />
      <stop offset="100%" style="stop-color:#8b5cf6;stop-opacity:1" />
    </linearGradient>
  </defs>
  
  <!-- Background -->
  <rect width="180" height="180" rx="35" fill="url(#bgGrad)"/>
  
  <!-- Outer border -->
  <rect x="8" y="8" width="164" height="164" rx="25" fill="none" stroke="url(#accentGrad)" stroke-width="2" opacity="0.6"/>
  
  <!-- Main SP monogram -->
  <g transform="translate(90, 90)">
    <!-- S letter -->
    <path d="M-35,-45 Q-55,-45 -55,-25 Q-55,-10 -35,-10 L-10,-10 Q15,-10 15,10 Q15,25 -10,25 L-20,25" 
          stroke="url(#spGrad)" stroke-width="12" fill="none" stroke-linecap="round" stroke-linejoin="round"/>
    
    <!-- P letter -->
    <path d="M15,-45 L15,45 M15,-45 L45,-45 Q65,-45 65,-20 Q65,5 45,5 L15,5" 
          stroke="url(#spGrad)" stroke-width="12" fill="none" stroke-linecap="round" stroke-linejoin="round"/>
    
    <!-- Tech accent dots -->
    <circle cx="-45" cy="-35" r="5" fill="#22d3ee" opacity="0.9"/>
    <circle cx="55" cy="-35" r="5" fill="#7c3aed" opacity="0.9"/>
    <circle cx="-45" cy="35" r="5" fill="#f472b6" opacity="0.9"/>
    <circle cx="55" cy="35" r="5" fill="#06b6d4" opacity="0.9"/>
  </g>
  
  <!-- Privacy/Security shield accent -->
  <g transform="translate(145, 45)" opacity="0.8">
    <path d="M0,-12 L12,-6 L12,12 Q12,18 0,18 Q-12,18 -12,12 L-12,-6 Z" 
          fill="none" stroke="url(#accentGrad)" stroke-width="4"/>
    <circle cx="0" cy="3" r="2" fill="#22d3ee"/>
  </g>
  
  <!-- AI/ML neural connection -->
  <g transform="translate(35, 145)" opacity="0.7">
    <circle cx="0" cy="0" r="6" fill="#7c3aed"/>
    <path d="M0,0 L18,-12" stroke="#7c3aed" stroke-width="3" opacity="0.8"/>
    <circle cx="18" cy="-12" r="4" fill="#f472b6"/>
    <path d="M18,-12 L30,0" stroke="#f472b6" stroke-width="2" opacity="0.6"/>
    <circle cx="30" cy="0" r="3" fill="#22d3ee"/>
  </g>
</svg>
