<svg viewBox="0 0 32 32" xmlns="http://www.w3.org/2000/svg">
  <defs>
    <linearGradient id="bgGrad" x1="0%" y1="0%" x2="100%" y2="100%">
      <stop offset="0%" style="stop-color:#0f172a;stop-opacity:1" />
      <stop offset="100%" style="stop-color:#1e293b;stop-opacity:1" />
    </linearGradient>
    <linearGradient id="spGrad" x1="0%" y1="0%" x2="100%" y2="100%">
      <stop offset="0%" style="stop-color:#22d3ee;stop-opacity:1" />
      <stop offset="50%" style="stop-color:#7c3aed;stop-opacity:1" />
      <stop offset="100%" style="stop-color:#f472b6;stop-opacity:1" />
    </linearGradient>
    <linearGradient id="accentGrad" x1="0%" y1="0%" x2="100%" y2="100%">
      <stop offset="0%" style="stop-color:#06b6d4;stop-opacity:1" />
      <stop offset="100%" style="stop-color:#8b5cf6;stop-opacity:1" />
    </linearGradient>
  </defs>
  
  <!-- Background -->
  <rect width="32" height="32" rx="6" fill="url(#bgGrad)"/>
  
  <!-- Outer border -->
  <rect x="1" y="1" width="30" height="30" rx="5" fill="none" stroke="url(#accentGrad)" stroke-width="0.5" opacity="0.6"/>
  
  <!-- Main SP monogram -->
  <g transform="translate(16, 16)">
    <!-- S letter -->
    <path d="M-6,-8 Q-10,-8 -10,-5 Q-10,-2 -6,-2 L-2,-2 Q2,-2 2,1 Q2,4 -2,4 L-4,4" 
          stroke="url(#spGrad)" stroke-width="2" fill="none" stroke-linecap="round" stroke-linejoin="round"/>
    
    <!-- P letter -->
    <path d="M2,-8 L2,8 M2,-8 L8,-8 Q12,-8 12,-4 Q12,0 8,0 L2,0" 
          stroke="url(#spGrad)" stroke-width="2" fill="none" stroke-linecap="round" stroke-linejoin="round"/>
    
    <!-- Tech accent dots -->
    <circle cx="-8" cy="-6" r="0.8" fill="#22d3ee" opacity="0.8">
      <animate attributeName="opacity" values="0.4;1;0.4" dur="2s" repeatCount="indefinite"/>
    </circle>
    <circle cx="10" cy="-6" r="0.8" fill="#7c3aed" opacity="0.8">
      <animate attributeName="opacity" values="0.4;1;0.4" dur="2s" repeatCount="indefinite" begin="0.7s"/>
    </circle>
    <circle cx="-8" cy="6" r="0.8" fill="#f472b6" opacity="0.8">
      <animate attributeName="opacity" values="0.4;1;0.4" dur="2s" repeatCount="indefinite" begin="1.3s"/>
    </circle>
    <circle cx="10" cy="6" r="0.8" fill="#06b6d4" opacity="0.8">
      <animate attributeName="opacity" values="0.4;1;0.4" dur="2s" repeatCount="indefinite" begin="0.3s"/>
    </circle>
  </g>
  
  <!-- Privacy/Security shield accent -->
  <g transform="translate(26, 8)" opacity="0.7">
    <path d="M0,-2 L2,-1 L2,2 Q2,3 0,3 Q-2,3 -2,2 L-2,-1 Z" 
          fill="none" stroke="url(#accentGrad)" stroke-width="0.8"/>
    <circle cx="0" cy="0.5" r="0.3" fill="#22d3ee"/>
  </g>
  
  <!-- AI/ML neural connection -->
  <g transform="translate(6, 26)" opacity="0.6">
    <circle cx="0" cy="0" r="1" fill="#7c3aed"/>
    <path d="M0,0 L3,-2" stroke="#7c3aed" stroke-width="0.5" opacity="0.8"/>
    <circle cx="3" cy="-2" r="0.7" fill="#f472b6"/>
  </g>
</svg>
