<svg viewBox="0 0 200 200" xmlns="http://www.w3.org/2000/svg">
  <defs>
    <linearGradient id="crowdGrad" x1="0%" y1="0%" x2="100%" y2="100%">
      <stop offset="0%" style="stop-color:#8b5cf6;stop-opacity:1" />
      <stop offset="100%" style="stop-color:#a855f7;stop-opacity:1" />
    </linearGradient>
    <linearGradient id="crowdAccent" x1="0%" y1="0%" x2="100%" y2="100%">
      <stop offset="0%" style="stop-color:#c084fc;stop-opacity:1" />
      <stop offset="100%" style="stop-color:#8b5cf6;stop-opacity:1" />
    </linearGradient>
  </defs>
  
  <!-- Background circle -->
  <circle cx="100" cy="100" r="95" fill="url(#crowdGrad)" opacity="0.1"/>
  
  <!-- Neural network representation -->
  <circle cx="100" cy="100" r="80" fill="none" stroke="url(#crowdGrad)" stroke-width="1" opacity="0.3"/>
  <circle cx="100" cy="100" r="60" fill="none" stroke="url(#crowdGrad)" stroke-width="1" opacity="0.4"/>
  <circle cx="100" cy="100" r="40" fill="none" stroke="url(#crowdGrad)" stroke-width="1" opacity="0.5"/>
  
  <!-- Crowd density dots -->
  <g opacity="0.8">
    <!-- Dense area -->
    <circle cx="80" cy="80" r="3" fill="url(#crowdAccent)"/>
    <circle cx="85" cy="85" r="2.5" fill="url(#crowdAccent)"/>
    <circle cx="90" cy="82" r="3" fill="url(#crowdAccent)"/>
    <circle cx="95" cy="88" r="2" fill="url(#crowdAccent)"/>
    <circle cx="100" cy="85" r="3.5" fill="url(#crowdAccent)"/>
    <circle cx="105" cy="82" r="2.5" fill="url(#crowdAccent)"/>
    <circle cx="110" cy="87" r="3" fill="url(#crowdAccent)"/>
    <circle cx="115" cy="84" r="2" fill="url(#crowdAccent)"/>
    <circle cx="120" cy="89" r="3" fill="url(#crowdAccent)"/>
    
    <!-- Medium density -->
    <circle cx="70" cy="120" r="2.5" fill="url(#crowdAccent)" opacity="0.7"/>
    <circle cx="80" cy="125" r="2" fill="url(#crowdAccent)" opacity="0.7"/>
    <circle cx="90" cy="122" r="2.5" fill="url(#crowdAccent)" opacity="0.7"/>
    <circle cx="110" cy="118" r="2" fill="url(#crowdAccent)" opacity="0.7"/>
    <circle cx="120" cy="125" r="2.5" fill="url(#crowdAccent)" opacity="0.7"/>
    <circle cx="130" cy="120" r="2" fill="url(#crowdAccent)" opacity="0.7"/>
    
    <!-- Sparse area -->
    <circle cx="60" cy="150" r="2" fill="url(#crowdAccent)" opacity="0.5"/>
    <circle cx="80" cy="155" r="1.5" fill="url(#crowdAccent)" opacity="0.5"/>
    <circle cx="120" cy="150" r="2" fill="url(#crowdAccent)" opacity="0.5"/>
    <circle cx="140" cy="155" r="1.5" fill="url(#crowdAccent)" opacity="0.5"/>
  </g>
  
  <!-- Density heatmap visualization -->
  <ellipse cx="100" cy="85" rx="25" ry="15" fill="url(#crowdAccent)" opacity="0.2"/>
  <ellipse cx="95" cy="120" rx="35" ry="10" fill="url(#crowdAccent)" opacity="0.15"/>
  <ellipse cx="100" cy="150" rx="45" ry="8" fill="url(#crowdAccent)" opacity="0.1"/>
  
  <!-- CSRNet layers representation -->
  <g stroke="url(#crowdAccent)" stroke-width="1" fill="none" opacity="0.6">
    <path d="M40 60 Q100 40 160 60" />
    <path d="M40 70 Q100 50 160 70" />
    <path d="M40 80 Q100 60 160 80" />
  </g>
  
  <!-- Animated scanning effect -->
  <circle cx="100" cy="100" r="20" fill="none" stroke="url(#crowdAccent)" stroke-width="2" opacity="0.8">
    <animate attributeName="r" values="20;50;20" dur="3s" repeatCount="indefinite"/>
    <animate attributeName="opacity" values="0.8;0.2;0.8" dur="3s" repeatCount="indefinite"/>
  </circle>
</svg>
