<svg viewBox="0 0 200 200" xmlns="http://www.w3.org/2000/svg">
  <defs>
    <linearGradient id="anprGrad" x1="0%" y1="0%" x2="100%" y2="100%">
      <stop offset="0%" style="stop-color:#06b6d4;stop-opacity:1" />
      <stop offset="100%" style="stop-color:#3b82f6;stop-opacity:1" />
    </linearGradient>
    <linearGradient id="anprAccent" x1="0%" y1="0%" x2="100%" y2="100%">
      <stop offset="0%" style="stop-color:#22d3ee;stop-opacity:1" />
      <stop offset="100%" style="stop-color:#06b6d4;stop-opacity:1" />
    </linearGradient>
  </defs>
  
  <!-- Background circle -->
  <circle cx="100" cy="100" r="95" fill="url(#anprGrad)" opacity="0.1"/>
  
  <!-- Car silhouette -->
  <path d="M50 130 L60 120 L80 115 L120 115 L140 120 L150 130 L150 140 L145 145 L135 145 L130 140 L70 140 L65 145 L55 145 L50 140 Z" 
        fill="url(#anprGrad)" opacity="0.8"/>
  
  <!-- License plate -->
  <rect x="75" y="125" width="50" height="15" rx="2" fill="url(#anprAccent)"/>
  <rect x="77" y="127" width="46" height="11" rx="1" fill="#1e293b"/>
  
  <!-- Plate text representation -->
  <rect x="80" y="129" width="4" height="7" fill="url(#anprAccent)"/>
  <rect x="86" y="129" width="4" height="7" fill="url(#anprAccent)"/>
  <rect x="92" y="129" width="4" height="7" fill="url(#anprAccent)"/>
  <rect x="98" y="129" width="4" height="7" fill="url(#anprAccent)"/>
  <rect x="104" y="129" width="4" height="7" fill="url(#anprAccent)"/>
  <rect x="110" y="129" width="4" height="7" fill="url(#anprAccent)"/>
  <rect x="116" y="129" width="4" height="7" fill="url(#anprAccent)"/>
  
  <!-- Camera/scanner beam -->
  <path d="M100 80 L100 110 M90 85 L110 85 M95 90 L105 90" 
        stroke="url(#anprAccent)" stroke-width="2" opacity="0.9"/>
  
  <!-- Detection points -->
  <circle cx="85" cy="100" r="3" fill="url(#anprAccent)" opacity="0.7">
    <animate attributeName="opacity" values="0.3;1;0.3" dur="2s" repeatCount="indefinite"/>
  </circle>
  <circle cx="100" cy="90" r="3" fill="url(#anprAccent)" opacity="0.7">
    <animate attributeName="opacity" values="0.3;1;0.3" dur="2s" repeatCount="indefinite" begin="0.5s"/>
  </circle>
  <circle cx="115" cy="100" r="3" fill="url(#anprAccent)" opacity="0.7">
    <animate attributeName="opacity" values="0.3;1;0.3" dur="2s" repeatCount="indefinite" begin="1s"/>
  </circle>
  
  <!-- Scanning lines -->
  <path d="M70 60 L130 60 M70 65 L130 65 M70 70 L130 70" 
        stroke="url(#anprAccent)" stroke-width="1" opacity="0.4">
    <animate attributeName="opacity" values="0;0.8;0" dur="3s" repeatCount="indefinite"/>
  </path>
</svg>
